<?xml version="1.0" encoding="utf-8"?>
<!-- Generator: Adobe Illustrator 25.3.1, SVG Export Plug-In . SVG Version: 6.00 Build 0)  -->
<svg version="1.1" id="Capa_1" xmlns="http://www.w3.org/2000/svg" xmlns:xlink="http://www.w3.org/1999/xlink" x="0px" y="0px"
	 viewBox="0 0 512 512" style="enable-background:new 0 0 512 512;" xml:space="preserve">
<style type="text/css">
	.st0{fill:#525252;}
</style>
<g>
	<g>
		<path class="st0" d="M94.5,244.6c-0.8-2.4-2.8-4.1-5.3-4.4l-24.9-3.6l-11.1-22.5c-2.2-4.4-9.5-4.4-11.7,0l-11.1,22.5l-24.8,3.6
			c-2.5,0.4-4.5,2.1-5.3,4.4c-0.8,2.4-0.1,4.9,1.6,6.7l18,17.6l-4.2,24.8c-0.4,2.4,0.6,4.9,2.6,6.4c2,1.5,4.7,1.6,6.9,0.5l22.2-11.7
			l22.3,11.7c1,0.5,2,0.8,3,0.8c1.3,0,2.7-0.4,3.8-1.2c2-1.5,3-3.9,2.6-6.4l-4.2-24.8l18-17.6C94.7,249.6,95.3,247,94.5,244.6z"/>
	</g>
</g>
<g>
	<g>
		<path class="st0" d="M198.8,244.6c-0.8-2.4-2.8-4.1-5.3-4.4l-24.9-3.6l-11.1-22.5c-2.2-4.4-9.5-4.4-11.7,0l-11.1,22.5l-24.8,3.6
			c-2.5,0.4-4.5,2.1-5.3,4.4c-0.8,2.4-0.1,4.9,1.6,6.7l18,17.6l-4.2,24.8c-0.4,2.4,0.6,4.9,2.6,6.4c2,1.5,4.7,1.6,6.9,0.5l22.2-11.7
			l22.3,11.7c1,0.5,2,0.8,3,0.8c1.3,0,2.7-0.4,3.8-1.2c2-1.5,3-3.9,2.6-6.4l-4.2-24.8l18-17.6C198.9,249.6,199.6,247,198.8,244.6z"
			/>
	</g>
</g>
<g>
	<g>
		<path class="st0" d="M303.1,244.6c-0.8-2.4-2.8-4.1-5.3-4.4l-24.9-3.6l-11.1-22.5c-2.2-4.4-9.5-4.4-11.7,0L239,236.6l-24.8,3.6
			c-2.5,0.4-4.5,2.1-5.3,4.4c-0.8,2.4-0.1,4.9,1.6,6.7l18,17.6l-4.2,24.8c-0.4,2.4,0.6,4.9,2.6,6.4c2,1.5,4.7,1.6,6.9,0.5l22.2-11.7
			l22.3,11.7c1,0.5,2,0.8,3,0.8c1.3,0,2.7-0.4,3.8-1.2c2-1.5,3-3.9,2.6-6.4l-4.2-24.8l18-17.6C303.2,249.6,303.9,247,303.1,244.6z"
			/>
	</g>
</g>
<g>
	<g>
		<path class="st0" d="M407.4,244.6c-0.8-2.4-2.8-4.1-5.3-4.4l-24.9-3.6l-11.1-22.5c-2.2-4.4-9.5-4.4-11.7,0l-11.1,22.5l-24.8,3.6
			c-2.5,0.4-4.5,2.1-5.3,4.4c-0.8,2.4-0.1,4.9,1.6,6.7l18,17.6l-4.2,24.8c-0.4,2.4,0.6,4.9,2.6,6.4c2,1.5,4.7,1.6,6.9,0.5l22.2-11.7
			l22.3,11.7c1,0.5,2,0.8,3,0.8c1.3,0,2.7-0.4,3.8-1.2c2-1.5,3-3.9,2.6-6.4l-4.2-24.8l18-17.6C407.5,249.6,408.2,247,407.4,244.6z"
			/>
	</g>
</g>
<g>
	<g>
		<path class="st0" d="M511.7,244.6c-0.8-2.4-2.8-4.1-5.3-4.4l-24.9-3.6l-11.1-22.5c-2.2-4.4-9.5-4.4-11.7,0l-11.1,22.5l-24.8,3.6
			c-2.5,0.4-4.5,2.1-5.3,4.4c-0.8,2.4-0.1,4.9,1.6,6.7l18,17.6l-4.2,24.8c-0.4,2.4,0.6,4.9,2.6,6.4c1.1,0.8,2.5,1.2,3.8,1.2
			c1,0,2.1-0.2,3-0.8l22.2-11.7l22.3,11.7c2.2,1.2,4.8,1,6.9-0.5c2-1.5,3-3.9,2.6-6.4l-4.2-24.8l18-17.6
			C511.8,249.6,512.4,247,511.7,244.6z"/>
	</g>
</g>
</svg>
