<svg id="Capa_1" data-name="Capa 1" xmlns="http://www.w3.org/2000/svg" viewBox="0 0 512 90.51"><defs><style>.cls-1{fill:#525252;}</style></defs><path class="cls-1" d="M94.53,244.61a6.52,6.52,0,0,0-5.27-4.43l-24.9-3.62L53.23,214.08c-2.2-4.45-9.48-4.45-11.68,0L30.42,236.56,5.58,240.18A6.51,6.51,0,0,0,2,251.29l18,17.56-4.25,24.78a6.51,6.51,0,0,0,9.46,6.87l22.19-11.7,22.25,11.7a6.53,6.53,0,0,0,3,.75A6.65,6.65,0,0,0,76.51,300a6.53,6.53,0,0,0,2.59-6.38l-4.24-24.78,18-17.56A6.52,6.52,0,0,0,94.53,244.61Z" transform="translate(0 -210.75)"/><path class="cls-1" d="M198.82,244.61a6.52,6.52,0,0,0-5.27-4.43l-24.9-3.62-11.13-22.48c-2.2-4.45-9.48-4.45-11.68,0l-11.13,22.48-24.84,3.62a6.51,6.51,0,0,0-3.61,11.11l18,17.56L120,293.63a6.52,6.52,0,0,0,9.47,6.87l22.19-11.7,22.25,11.7a6.53,6.53,0,0,0,3,.75A6.65,6.65,0,0,0,180.8,300a6.53,6.53,0,0,0,2.59-6.38l-4.24-24.78,18-17.56A6.52,6.52,0,0,0,198.82,244.61Z" transform="translate(0 -210.75)"/><path class="cls-1" d="M303.1,244.61a6.51,6.51,0,0,0-5.26-4.43l-24.9-3.62-11.13-22.48c-2.2-4.45-9.48-4.45-11.68,0L239,236.56l-24.84,3.62a6.51,6.51,0,0,0-3.61,11.11l18,17.56-4.25,24.78a6.52,6.52,0,0,0,9.47,6.87L256,288.8l22.25,11.7a6.5,6.5,0,0,0,3,.75,6.65,6.65,0,0,0,3.84-1.24,6.53,6.53,0,0,0,2.59-6.38l-4.24-24.78,18-17.56A6.5,6.5,0,0,0,303.1,244.61Z" transform="translate(0 -210.75)"/><path class="cls-1" d="M407.39,244.61a6.53,6.53,0,0,0-5.26-4.43l-24.9-3.62L366.1,214.08c-2.2-4.45-9.48-4.45-11.69,0l-11.12,22.48-24.84,3.62a6.51,6.51,0,0,0-3.61,11.11l18,17.56-4.25,24.78a6.52,6.52,0,0,0,9.47,6.87l22.18-11.7,22.26,11.7a6.5,6.5,0,0,0,3,.75,6.65,6.65,0,0,0,3.84-1.24,6.55,6.55,0,0,0,2.59-6.38l-4.24-24.78,18-17.56A6.5,6.5,0,0,0,407.39,244.61Z" transform="translate(0 -210.75)"/><path class="cls-1" d="M511.68,244.61a6.53,6.53,0,0,0-5.26-4.43l-24.9-3.62-11.13-22.48c-2.2-4.45-9.48-4.45-11.69,0l-11.12,22.48-24.84,3.62a6.51,6.51,0,0,0-3.61,11.11l18,17.56-4.25,24.78a6.52,6.52,0,0,0,6.42,7.62,6.61,6.61,0,0,0,3.05-.75l22.19-11.7,22.26,11.7a6.52,6.52,0,0,0,9.45-6.87L492,268.85l18-17.56A6.5,6.5,0,0,0,511.68,244.61Z" transform="translate(0 -210.75)"/></svg>