<?xml version="1.0" encoding="utf-8"?>
<!-- Generator: Adobe Illustrator 25.3.1, SVG Export Plug-In . SVG Version: 6.00 Build 0)  -->
<svg version="1.1" id="Capa_1" xmlns="http://www.w3.org/2000/svg" xmlns:xlink="http://www.w3.org/1999/xlink" x="0px" y="0px"
	 viewBox="0 0 512 512" style="enable-background:new 0 0 512 512;" xml:space="preserve">
<style type="text/css">
	.st0{fill:#525252;}
</style>
<g>
	<g>
		<path class="st0" d="M250.9,208.6h15.2c5.5,0,10-4.5,10-10s-4.5-10-10-10h-5.5l7.2-18.2c2-5.1-0.5-10.9-5.6-13
			c-5.1-2-10.9,0.5-13,5.6l-10.8,27.2c-1.6,4.1-1.1,8.8,1.4,12.5C242.3,206.4,246.4,208.6,250.9,208.6L250.9,208.6z"/>
		<path class="st0" d="M476.9,376.2c-12.9-21.6-31-38.4-52.5-49.1v-3.4c0-3.3-1.7-6.4-4.4-8.3c-0.8-0.5-20.5-13.5-59.3-13.5
			c-5.5,0-10,4.5-10,10v2.3h-21.9l-9-53.3c29.1-19.8,50-54.7,50-90.5v-30.5h30.4c3.9,0,7.4-2.2,9-5.7c1.7-3.5,1.2-7.6-1.3-10.6
			l-40.1-49.2l-5.7-43.3c0-0.1,0-0.2,0-0.3C359.1,13,343.9,0,325.8,0H187.6c-18.1,0-33.4,13-36.3,30.9c0,0.1,0,0.2,0,0.3L145,77.7
			l-37.4,45.9c-2.4,3-2.9,7.1-1.3,10.6s5.2,5.7,9,5.7h28.2v30.5c0,0.1,0,0.2,0,0.4c1.4,38.5,22.5,72.4,53.2,92l-8.5,51.5h-23V312
			c0-5.5-4.5-10-10-10c-38.3,0-56.6,12.2-58.5,13.6c-2.6,1.9-4.2,4.9-4.2,8.1v5.1c-22.1,11.1-41,27.8-54.9,48.7
			c-15.5,23.3-23.7,50.1-23.7,77.7V502c0,5.5,4.5,10,10,10h464.1c5.5,0,10-4.5,10-10v-46.7C498.1,426.7,490.7,399.3,476.9,376.2
			L476.9,376.2z M160.7,90.2h53.4c5.5,0,10-4.5,10-10s-4.5-10-10-10h-47.9L171,34c1.4-8.1,8.3-14,16.6-14h138.2
			c8.2,0,15.2,5.9,16.6,14l4.8,36.2h-46.2c-5.5,0-10,4.5-10,10s4.5,10,10,10h54l24.2,29.8H136.4L160.7,90.2z M163.5,170.3v-30.3
			h186.2v30.3c-1.8,49.2-43.8,90.1-93.1,90.1C207.4,260.4,165.4,219.3,163.5,170.3L163.5,170.3z M256.7,280.4
			c15.5,0,30.6-3.2,44.6-9.2l8.5,50.5c-26.1,32-76.3,32-102.4,0l8.1-49.3C228.3,277.5,242.2,280.4,256.7,280.4z M165.3,334.3h26.5
			c33.8,41.7,99.6,41.8,133.4,0h25.4v65.4c0,7.4-6.3,13.7-13.7,13.7H179c-7.4,0-13.7-6.2-13.7-13.7V334.3z M145.3,322.3v77.3
			c0,18.3,15.3,33.7,33.7,33.7h158c18.3,0,33.7-15.3,33.7-33.7v-77.3c15.6,1.1,27.2,4.5,33.7,7.4l0,162.2H112.6l0-162.4
			C118.9,326.8,130,323.4,145.3,322.3L145.3,322.3z M33.9,455.3c0-23.6,7-46.6,20.3-66.6c10.1-15.1,23.1-27.7,38.3-37V492H33.9
			L33.9,455.3z M478.1,492h-53.7V350c33,20.9,53.7,60.5,53.7,105.3L478.1,492z"/>
		<path class="st0" d="M268.1,76.3c-1.5-3.7-5.2-6.2-9.2-6.2c-4.4,0-8.3,2.9-9.6,7.1c-1.3,4.4,0.6,9.4,4.7,11.6
			c3.5,1.9,7.9,1.6,11-0.9C268.6,85.3,269.8,80.4,268.1,76.3z"/>
	</g>
</g>
</svg>
