<?xml version="1.0" encoding="utf-8"?>
<!-- Generator: Adobe Illustrator 25.3.1, SVG Export Plug-In . SVG Version: 6.00 Build 0)  -->
<svg version="1.1" id="Capa_1" xmlns="http://www.w3.org/2000/svg" xmlns:xlink="http://www.w3.org/1999/xlink" x="0px" y="0px"
	 viewBox="0 0 240.9 95.6" style="enable-background:new 0 0 240.9 95.6;" xml:space="preserve">
<style type="text/css">
	.st0{fill:#A9C437;}
	.st1{fill:#020203;}
</style>
<g>
	<polygon class="st0" points="45.8,54.2 45.8,89 49.6,89 49.6,48.5 	"/>
	<polygon class="st1" points="45.8,44.7 45.8,44.6 26.7,73.9 25.4,73.9 6.1,44.6 6.1,89 2.3,89 2.3,39 6.8,39 26,68.2 44.9,39 
		49.5,39 	"/>
	<rect x="67.1" y="39" class="st1" width="3.8" height="50"/>
	<polygon class="st1" points="90,39 123.6,80.4 123.6,39 127.4,39 127.4,89 125.9,89 92.2,47.7 92.2,89 88.3,89 88.3,39 	"/>
	<polygon class="st1" points="159.1,42.5 141.1,42.5 141.1,39.1 181,39.1 181,42.5 163,42.5 163,89 159.1,89 	"/>
	<path class="st1" d="M227.5,73.2L227.5,73.2l-13.4-30.4l-13.4,30.4H227.5z M234.5,89L229,76.7h-29.8L193.7,89h-4.1L212,39h4.2
		l22.4,50H234.5z"/>
	<path class="st0" d="M25.7,16.7L25.7,16.7h5c3.4,0,5.6-1.5,5.6-4.8c0-2.8-1.9-4.1-4.9-4.1h-4.6L25.7,16.7z M23.6,5h8.3
		c4.7,0,7.9,2.6,7.9,6.8c0,5-3.6,7.7-9.1,7.7h-5.3l-1.2,10.2h-3.4L23.6,5z"/>
	<path class="st0" d="M46.1,18.9L46.1,18.9c0,4.9,2.2,8.4,6.7,8.4c5.9,0,8.3-6,8.3-11.5c0-4.8-2.1-8.3-6.7-8.3
		C48.7,7.5,46.1,13.5,46.1,18.9 M64.7,15.8c0,7-3.7,14.3-12.1,14.3c-6.5,0-10-4.6-10-11.2c0-6.7,3.9-14.2,12.1-14.2
		C61.3,4.7,64.7,9.4,64.7,15.8z"/>
	<path class="st0" d="M71.7,29.7L68.3,5h3.5c1.1,9,2.1,17.9,2.2,21h0c0.9-3.3,5.6-14.9,7.8-21H85c0.8,5.4,2.5,17.6,2.6,20.8h0
		c1.1-3.9,5.4-15.1,7.6-20.8h3.4L89,29.7h-3.7C84.6,24.1,83,13,82.8,9.6h0c-1.1,3.8-5.4,14.6-7.5,20.1H71.7z"/>
	<polygon class="st0" points="115.8,18.2 104.4,18.2 103.4,26.9 116.3,26.9 115.5,29.7 99.7,29.7 102.6,5 117.9,5 117.6,7.9 
		105.6,7.9 104.7,15.3 116.1,15.3 	"/>
	<path class="st0" d="M125,16L125,16h4.7c3.6,0,5.8-1.2,5.8-4.4c0-2.4-1.6-3.7-4.5-3.7h-5.1L125,16z M124.6,18.8l-1.3,10.9H120
		L122.9,5h8.8c4.7,0,7.4,2.5,7.4,6.2c0,3.6-2.2,5.5-4.7,6.2c2,0.7,3.3,2.5,2.9,6.3v0.4c-0.3,2.3-0.5,4.3-0.3,5.6h-3.3
		c-0.2-1-0.1-3,0.3-5.7v-0.2c0.4-3.4-0.5-5-4.5-5H124.6z"/>
	<polygon class="st0" points="158.3,18.2 146.8,18.2 145.8,26.9 158.7,26.9 157.9,29.7 142.1,29.7 145.1,5 160.4,5 160,7.9 
		148.1,7.9 147.2,15.3 158.6,15.3 	"/>
	<path class="st0" d="M166.1,26.9L166.1,26.9h4.8c6.1,0,9.4-4.5,9.4-10.8c0-5.3-2.8-8.3-7.6-8.3h-4.3L166.1,26.9z M165.3,5h7.9
		c6.5,0,10.7,4.1,10.7,11c0,7.8-4.7,13.7-12.8,13.7h-8.7L165.3,5z"/>
	<path class="st1" d="M205,22.5L205,22.5c0-2.2-1-3.5-2.8-3.5c-2.4,0-3.5,1.9-3.8,4.5c-0.3,2.7,0.3,4.6,2.8,4.6
		C203.8,28.1,205,25.1,205,22.5 M197.7,11.9h2.2l-0.8,7.2c0.7-1,1.9-2,3.9-2c2.7,0,4.4,2.1,4.4,5.2c0,3.7-1.8,7.7-6,7.7
		c-1.9,0-2.9-0.8-3.4-1.9c-0.1,0.5-0.2,1.2-0.3,1.6h-2.2c0.1-0.8,0.3-2.1,0.4-3.6L197.7,11.9z"/>
	<path class="st1" d="M211.5,17.3c1.2,5.5,1.9,9.1,2.1,10.4h0c0.5-1.4,1.9-4.8,4.3-10.4h2.3l-5.8,13c-1.7,3.8-2.8,4.4-5.2,4.4
		c-0.3,0-1-0.1-1.3-0.1l0.2-1.9c0.3,0,0.7,0.1,1.1,0.1c1.5,0,2.1-0.8,3-2.7l-3-12.8H211.5z"/>
</g>
</svg>
