<svg height="512pt" viewBox="0 -62 512 512" width="512pt" xmlns="http://www.w3.org/2000/svg"><path d="m382.832031 174.386719h-16.046875v-99.265625h16.046875c3.632813 3.636718 5.671875 5.675781 9.304688 9.308594v80.648437c-3.632813 3.636719-5.671875 5.671875-9.304688 9.308594zm0 0" fill="#57565c"/><path d="m16.804688 75.121094h16.046874v99.265625h-16.046874c-3.632813-3.636719-5.671876-5.671875-9.304688-9.308594v-80.648437c3.632812-3.632813 5.671875-5.671876 9.304688-9.308594zm0 0" fill="#57565c"/><path d="m88.761719 242.007812h-42.863281c-5.0625-5.0625-7.902344-7.902343-13.050782-12.96875v-208.570312c5.148438-5.066406 7.988282-7.902344 13.050782-12.96875h42.863281zm0 0" fill="#ff7956"/><path d="m310.953125 242.007812h42.867187c5.0625-5.0625 7.902344-7.902343 12.964844-12.96875v-208.570312c-5.0625-5.066406-7.902344-7.902344-12.964844-12.96875h-42.867187zm0 0" fill="#ff7956"/><path d="m88.761719 29.261719h222.195312v190.976562h-222.195312zm0 0" fill="#ffe477"/><path d="m443 143.367188h-50.863281v-37.222657h50.863281c3.125 3.121094 4.875 4.875 8 8v21.222657c-3.125 3.121093-4.875 4.875-8 8zm0 0" fill="#57565c"/><path d="m496.5 366.367188h-72.363281v-37.222657h72.363281c3.125 3.121094 4.875 4.875 8 8v21.222657c-3.125 3.121093-4.875 4.875-8 8zm0 0" fill="#57565c"/><path d="m392.136719 143.367188h32v236.164062h-32zm0 0" fill="#e0e0e2"/><path d="m382.832031 75.121094h-16.046875v99.265625h16.046875c3.632813-3.636719 5.671875-5.671875 9.304688-9.308594v-80.648437c-3.632813-3.632813-5.671875-5.671876-9.304688-9.308594zm0 0" fill="#2d2d30"/><path d="m62.851562 20.46875c5.144532-5.066406 7.984376-7.902344 13.046876-12.96875h-30c-5.0625 5.066406-7.902344 7.902344-13.046876 12.96875v208.570312c5.144532 5.066407 7.984376 7.90625 13.046876 12.96875h30c-5.0625-5.0625-7.902344-7.902343-13.046876-12.96875zm0 0" fill="#ed4726"/><path d="m310.953125 7.5h30v234.507812h-30zm0 0" fill="#ed4726"/><path d="m88.761719 29.261719h30v190.976562h-30zm0 0" fill="#ff9811"/><path d="m392.136719 106.140625h30v37.222656h-30zm0 0" fill="#2d2d30"/><path d="m424.136719 329.140625h30v37.222656h-30zm0 0" fill="#2d2d30"/><path d="m392.136719 143.367188h15v236.164062h-15zm0 0" fill="#acabb1"/><path d="m40.59375 2.199219c-5.050781 5.050781-7.832031 7.832031-13.003906 12.921875l-2.238282 2.207031v50.296875h-11.652343l-13.699219 13.699219v86.863281l13.699219 13.699219h11.648437v50.296875l2.242188 2.203125c5.171875 5.089843 7.953125 7.871093 13.003906 12.925781l2.195312 2.195312h53.472657v-249.507812h-53.46875zm-20.679688 164.6875-4.914062-4.914063v-74.4375l4.910156-4.910156h5.441406v84.261719zm61.347657-151.886719v219.507812h-32.257813c-3.035156-3.035156-5.460937-5.453124-8.652344-8.605468v-202.296875c3.191407-3.152344 5.617188-5.570313 8.652344-8.605469zm0 0"/><path d="m290.953125 36.761719v-15h-12.726563l-.84375-10.226563-14.949218 1.234375.742187 8.992188h-16.691406l-.84375-10.226563-14.949219 1.234375.742188 8.992188h-16.6875l-.847656-10.230469-14.949219 1.238281.746093 8.988281h-16.691406l-.847656-10.226562-14.945312 1.238281.742187 8.988281h-16.691406l-.84375-10.226562-14.949219 1.234375.742188 8.992187h-16.691407l-.84375-10.226562-14.949219 1.234375 16.527344 199.96875h-11.488281v15h12.726563l.847656 10.226563 14.949218-1.234376-.742187-8.992187h16.6875l.84375 10.226563 14.949219-1.234376-.742188-8.992187h16.691406l.84375 10.230469 14.949219-1.238282-.742187-8.988281h16.691406l.84375 10.226563 14.949219-1.238282-.742188-8.988281h16.6875l.847657 10.226563 14.949218-1.234375-.746094-8.992188h16.691407l.847656 10.226563 14.945313-1.234375-16.523438-199.96875zm-155.652344 175.976562-14.542969-175.976562h16.691407l14.542969 175.976562zm31.742188 0-14.542969-175.976562h16.691406l14.542969 175.976562zm31.742187 0-14.542968-175.976562h16.691406l14.542968 175.976562zm31.742188 0-14.542969-175.976562h16.691406l14.542969 175.976562zm48.433594 0h-16.691407l-14.542969-175.976562h16.6875zm0 0"/><path d="m458.5 138.472656v-27.4375l-12.394531-12.390625h-33.96875v15h27.757812l3.605469 3.605469v15.007812l-3.605469 3.609376h-27.757812v15h33.96875zm0 0"/><path d="m499.605469 321.644531h-67.96875v-158.277343h-15v208.664062h-17v-290.707031l-13.699219-13.699219h-11.652344v-50.261719l-17.359375-17.363281h-53.46875v249.507812h53.46875l17.359375-17.359374v-50.261719h10.351563v158.367187h-15.636719v15h15.636719v31.777344h47v-13.164062h67.96875l12.394531-12.394532v-27.4375zm-140.320313-95.710937-8.570312 8.574218h-32.257813v-219.507812h32.257813l8.570312 8.574219zm20.4375-59.046875h-5.4375v-84.265625h5.4375l4.914063 4.914062v74.4375zm117.277344 188.371093-3.605469 3.605469h-61.757812v-22.222656h61.757812l3.605469 3.605469zm0 0"/><g fill="#fff"><path d="m349.285156 222.964844h-15v-112.421875h15zm0-122.421875h-15v-15h15zm0-25h-15v-15h15zm0 0"/><path d="m71.261719 222.964844h-15v-112.421875h15zm0-122.421875h-15v-15h15zm0-25h-15v-15h15zm0 0"/></g></svg>